
<svg xmlns="http://www.w3.org/2000/svg" width="192" height="192" viewBox="0 0 192 192">
  <rect width="192" height="192" rx="40" fill="#1a73e8"/>
  <g transform="translate(96,96)">
    <circle cx="0" cy="0" r="56" fill="none" stroke="white" stroke-width="6"/>
    <circle cx="0" cy="0" r="4" fill="white"/>
    <line x1="0" y1="4" x2="0" y2="-36" stroke="white" stroke-width="5" stroke-linecap="round"/>
    <line x1="0" y1="4" x2="24" y2="16" stroke="white" stroke-width="4" stroke-linecap="round"/>
    <g fill="white" font-family="sans-serif" font-size="9" font-weight="bold" text-anchor="middle">
      <text x="0" y="-42">12</text>
      <text x="27" y="-36" transform="rotate(30,27,-36)">1</text>
      <text x="42" y="-14">2</text>
      <text x="46" y="4">3</text>
      <text x="42" y="22">4</text>
      <text x="27" y="40" transform="rotate(-30,27,40)">5</text>
      <text x="0" y="50">6</text>
      <text x="-27" y="40" transform="rotate(30,-27,40)">7</text>
      <text x="-42" y="22">8</text>
      <text x="-46" y="4">9</text>
      <text x="-42" y="-14">10</text>
      <text x="-27" y="-36" transform="rotate(-30,-27,-36)">11</text>
    </g>
  </g>
  <g transform="translate(96,155)">
    <rect x="-40" y="-10" width="80" height="20" rx="4" fill="rgba(255,255,255,0.2)"/>
    <text x="0" y="5" fill="white" font-family="sans-serif" font-size="11" font-weight="bold" text-anchor="middle">08524.7</text>
  </g>
</svg>
