
<svg xmlns="http://www.w3.org/2000/svg" width="512" height="512" viewBox="0 0 512 512">
  <rect width="512" height="512" rx="100" fill="#1a73e8"/>
  <g transform="translate(256,246)">
    <circle cx="0" cy="0" r="140" fill="none" stroke="white" stroke-width="10"/>
    <circle cx="0" cy="0" r="8" fill="white"/>
    <line x1="0" y1="8" x2="0" y2="-90" stroke="white" stroke-width="10" stroke-linecap="round"/>
    <line x1="0" y1="8" x2="60" y2="40" stroke="white" stroke-width="7" stroke-linecap="round"/>
    <!-- tick marks -->
    <g stroke="white" stroke-width="4">
      <line x1="0" y1="-128" x2="0" y2="-118" transform="rotate(0)"/>
      <line x1="0" y1="-128" x2="0" y2="-118" transform="rotate(30)"/>
      <line x1="0" y1="-128" x2="0" y2="-118" transform="rotate(60)"/>
      <line x1="0" y1="-128" x2="0" y2="-118" transform="rotate(90)"/>
      <line x1="0" y1="-128" x2="0" y2="-118" transform="rotate(120)"/>
      <line x1="0" y1="-128" x2="0" y2="-118" transform="rotate(150)"/>
      <line x1="0" y1="-128" x2="0" y2="-118" transform="rotate(180)"/>
      <line x1="0" y1="-128" x2="0" y2="-118" transform="rotate(210)"/>
      <line x1="0" y1="-128" x2="0" y2="-118" transform="rotate(240)"/>
      <line x1="0" y1="-128" x2="0" y2="-118" transform="rotate(270)"/>
      <line x1="0" y1="-128" x2="0" y2="-118" transform="rotate(300)"/>
      <line x1="0" y1="-128" x2="0" y2="-118" transform="rotate(330)"/>
    </g>
  </g>
  <g transform="translate(256,420)">
    <rect x="-100" y="-22" width="200" height="44" rx="8" fill="rgba(255,255,255,0.2)"/>
    <text x="0" y="8" fill="white" font-family="sans-serif" font-size="28" font-weight="bold" text-anchor="middle" letter-spacing="3">08524.7</text>
  </g>
</svg>
